<?xml version="1.0" encoding="utf-8"?>
<!-- Generator: Adobe Illustrator 27.3.1, SVG Export Plug-In . SVG Version: 6.00 Build 0)  -->
<svg version="1.1" id="Outline" xmlns="http://www.w3.org/2000/svg" xmlns:xlink="http://www.w3.org/1999/xlink" x="0px" y="0px"
	 viewBox="0 0 48 48" enable-background="new 0 0 48 48" xml:space="preserve">
<g>
	<path d="M37,9h-1V8c0-1.6543-1.3457-3-3-3H11C9.3457,5,8,6.3457,8,8v28c0,1.6543,1.3457,3,3,3h1v1c0,1.6543,1.3457,3,3,3h16
		c4.96289,0,9-4.03711,9-9v-5c0-0.55273-0.44727-1-1-1s-1,0.44727-1,1v4h-5c-1.6543,0-3,1.3457-3,3v5H15c-0.55176,0-1-0.44824-1-1
		V12c0-0.55176,0.44824-1,1-1h22c0.55176,0,1,0.44824,1,1v9c0,0.55273,0.44727,1,1,1s1-0.44727,1-1v-9C40,10.3457,38.6543,9,37,9z
		 M32,40.9201V39h0.5c1.92969,0,3.5-1.57031,3.5-3.5V35h1.9201C37.47931,38.05872,35.05872,40.47931,32,40.9201z M33,35h1v0.5
		c0,0.82715-0.67285,1.5-1.5,1.5H32v-1C32,35.44824,32.44824,35,33,35z M12,12v25h-1c-0.55176,0-1-0.44824-1-1V8
		c0-0.55176,0.44824-1,1-1h22c0.55176,0,1,0.44824,1,1v1H15C13.3457,9,12,10.3457,12,12z"/>
	<path d="M34,14c0-0.55273-0.44727-1-1-1H19c-0.55273,0-1,0.44727-1,1s0.44727,1,1,1h14C33.55273,15,34,14.55273,34,14z"/>
	<path d="M20.70703,17.29297c-0.39062-0.39062-1.02344-0.39062-1.41406,0L18,18.58594l-0.29297-0.29297
		c-0.39062-0.39062-1.02344-0.39062-1.41406,0s-0.39062,1.02344,0,1.41406l1,1c0.38798,0.38798,1.02587,0.38819,1.41406,0l2-2
		C21.09766,18.31641,21.09766,17.68359,20.70703,17.29297z"/>
	<path d="M35,18H24c-0.55273,0-1,0.44727-1,1s0.44727,1,1,1h11c0.55273,0,1-0.44727,1-1S35.55273,18,35,18z"/>
	<path d="M20.70703,22.29297c-0.39062-0.39062-1.02344-0.39062-1.41406,0L18,23.58594l-0.29297-0.29297
		c-0.39062-0.39062-1.02344-0.39062-1.41406,0s-0.39062,1.02344,0,1.41406c0,0,1,1,1.00006,1.00006
		c0.38776,0.3877,1.02617,0.38777,1.41401-0.00006l2-2C21.09766,23.31641,21.09766,22.68359,20.70703,22.29297z"/>
	<path d="M35,23H24c-0.55273,0-1,0.44727-1,1s0.44727,1,1,1h11c0.55273,0,1-0.44727,1-1S35.55273,23,35,23z"/>
	<path d="M20.70703,27.29297c-0.39062-0.39062-1.02344-0.39062-1.41406,0L18,28.58594l-0.29297-0.29297
		c-0.39062-0.39062-1.02344-0.39062-1.41406,0s-0.39062,1.02344,0,1.41406c0,0,1,1,1.00006,1.00006
		c0.38774,0.38768,1.02615,0.38779,1.414-0.00006l2-2C21.09766,28.31641,21.09766,27.68359,20.70703,27.29297z"/>
	<path d="M36,29c0-0.55273-0.44727-1-1-1H24c-0.55273,0-1,0.44727-1,1s0.44727,1,1,1h11C35.55273,30,36,29.55273,36,29z"/>
	<path d="M20,33h-3c-0.55273,0-1,0.44727-1,1s0.44727,1,1,1h3c0.55273,0,1-0.44727,1-1S20.55273,33,20,33z"/>
	<path d="M27,33h-3c-0.55273,0-1,0.44727-1,1s0.44727,1,1,1h3c0.55273,0,1-0.44727,1-1S27.55273,33,27,33z"/>
	<path d="M20,37h-3c-0.55273,0-1,0.44727-1,1s0.44727,1,1,1h3c0.55273,0,1-0.44727,1-1S20.55273,37,20,37z"/>
	<path d="M27,37h-3c-0.55273,0-1,0.44727-1,1s0.44727,1,1,1h3c0.55273,0,1-0.44727,1-1S27.55273,37,27,37z"/>
	<circle cx="39" cy="25" r="1"/>
</g>
</svg>
